<svg width="638" height="226" viewBox="0 0 638 226" fill="none" xmlns="http://www.w3.org/2000/svg">
<path d="M0.210938 10.5508V7.52344C0.210938 6.66406 0.373698 5.78516 0.699219 4.88672C1.03776 3.97526 1.48047 3.1224 2.02734 2.32812C2.57422 1.52083 3.16016 0.83724 3.78516 0.277344L6.51953 1.82031C6.07682 2.58854 5.6862 3.42188 5.34766 4.32031C5.00911 5.21875 4.83984 6.28646 4.83984 7.52344V10.5508H0.210938ZM6.94922 10.5508V7.52344C6.94922 6.66406 7.11198 5.78516 7.4375 4.88672C7.77604 3.97526 8.21875 3.1224 8.76562 2.32812C9.3125 1.52083 9.89844 0.83724 10.5234 0.277344L13.2578 1.82031C12.8151 2.58854 12.4245 3.42188 12.0859 4.32031C11.7474 5.21875 11.5781 6.28646 11.5781 7.52344V10.5508H6.94922ZM20.0352 2.5625H25.3086L32.1445 22.8945L38.9609 2.5625H44.2344L34.2734 31H29.9961L20.0352 2.5625ZM16.9883 2.5625H22.3594L23.3555 23.6367V31H16.9883V2.5625ZM41.9102 2.5625H47.3008V31H40.9141V23.6367L41.9102 2.5625ZM64.1953 7.97266L56.8516 31H50.0547L60.582 2.5625H64.8789L64.1953 7.97266ZM70.2891 31L62.9258 7.97266L62.1641 2.5625H66.5195L77.0859 31H70.2891ZM69.9766 20.4141V25.3359H55.1523V20.4141H69.9766ZM85.8164 2.5625V31H79.4492V2.5625H85.8164ZM102.809 2.5625L91.6758 16.7812L85.1914 23.8125L84.0391 17.8945L88.3164 11.7617L94.9961 2.5625H102.809ZM95.4258 31L87.5742 18.0117L92.418 14.2422L102.965 31H95.4258ZM124.293 26.0781V31H109.156V26.0781H124.293ZM111.324 2.5625V31H104.957V2.5625H111.324ZM122.34 14.0078V18.7734H109.156V14.0078H122.34ZM124.312 2.5625V7.50391H109.156V2.5625H124.312ZM142.984 2.5625H149.352V21.2344C149.352 23.4479 148.883 25.3099 147.945 26.8203C147.021 28.3307 145.732 29.4701 144.078 30.2383C142.424 31.0065 140.51 31.3906 138.336 31.3906C136.148 31.3906 134.221 31.0065 132.555 30.2383C130.901 29.4701 129.599 28.3307 128.648 26.8203C127.711 25.3099 127.242 23.4479 127.242 21.2344V2.5625H133.629V21.2344C133.629 22.4583 133.811 23.4609 134.176 24.2422C134.553 25.0104 135.094 25.5768 135.797 25.9414C136.5 26.293 137.346 26.4688 138.336 26.4688C139.326 26.4688 140.165 26.293 140.855 25.9414C141.559 25.5768 142.086 25.0104 142.438 24.2422C142.802 23.4609 142.984 22.4583 142.984 21.2344V2.5625ZM165.113 21.1172H157.965V16.1758H165.113C166.168 16.1758 167.014 16 167.652 15.6484C168.303 15.2969 168.779 14.8151 169.078 14.2031C169.391 13.5781 169.547 12.875 169.547 12.0938C169.547 11.2865 169.391 10.5378 169.078 9.84766C168.779 9.14453 168.303 8.57812 167.652 8.14844C167.014 7.71875 166.168 7.50391 165.113 7.50391H160.27V31H153.902V2.5625H165.113C167.379 2.5625 169.319 2.97266 170.934 3.79297C172.561 4.61328 173.805 5.73958 174.664 7.17188C175.536 8.59115 175.973 10.2188 175.973 12.0547C175.973 13.8906 175.536 15.4857 174.664 16.8398C173.805 18.194 172.561 19.2487 170.934 20.0039C169.319 20.7461 167.379 21.1172 165.113 21.1172ZM196.578 2.5625V31H190.23V2.5625H196.578ZM216.461 23.5C216.461 23.0182 216.389 22.5885 216.246 22.2109C216.103 21.8203 215.842 21.4622 215.465 21.1367C215.087 20.8112 214.553 20.4857 213.863 20.1602C213.173 19.8216 212.268 19.4766 211.148 19.125C209.872 18.7083 208.655 18.2396 207.496 17.7188C206.35 17.1849 205.328 16.5664 204.43 15.8633C203.531 15.1602 202.822 14.3398 202.301 13.4023C201.793 12.4648 201.539 11.3711 201.539 10.1211C201.539 8.91016 201.806 7.81641 202.34 6.83984C202.874 5.86328 203.622 5.02995 204.586 4.33984C205.549 3.63672 206.682 3.10286 207.984 2.73828C209.286 2.36068 210.719 2.17188 212.281 2.17188C214.365 2.17188 216.194 2.54297 217.77 3.28516C219.358 4.01432 220.595 5.04297 221.48 6.37109C222.366 7.6862 222.809 9.21615 222.809 10.9609H216.48C216.48 10.1927 216.318 9.51562 215.992 8.92969C215.68 8.33073 215.198 7.86198 214.547 7.52344C213.909 7.1849 213.108 7.01562 212.145 7.01562C211.207 7.01562 210.419 7.15885 209.781 7.44531C209.156 7.71875 208.681 8.09635 208.355 8.57812C208.043 9.0599 207.887 9.58724 207.887 10.1602C207.887 10.6159 208.004 11.0326 208.238 11.4102C208.486 11.7747 208.837 12.1198 209.293 12.4453C209.762 12.7578 210.335 13.0573 211.012 13.3438C211.689 13.6302 212.464 13.9036 213.336 14.1641C214.859 14.6458 216.207 15.1797 217.379 15.7656C218.564 16.3516 219.56 17.0156 220.367 17.7578C221.174 18.5 221.78 19.3398 222.184 20.2773C222.6 21.2148 222.809 22.276 222.809 23.4609C222.809 24.724 222.561 25.8438 222.066 26.8203C221.585 27.7969 220.882 28.6302 219.957 29.3203C219.046 29.9974 217.952 30.5117 216.676 30.8633C215.4 31.2148 213.974 31.3906 212.398 31.3906C210.966 31.3906 209.553 31.2083 208.16 30.8438C206.767 30.4661 205.504 29.8932 204.371 29.125C203.251 28.3568 202.353 27.3802 201.676 26.1953C201.012 24.9974 200.68 23.5781 200.68 21.9375H207.047C207.047 22.7969 207.171 23.526 207.418 24.125C207.665 24.7109 208.017 25.1862 208.473 25.5508C208.941 25.9154 209.508 26.1758 210.172 26.332C210.836 26.4883 211.578 26.5664 212.398 26.5664C213.349 26.5664 214.117 26.4362 214.703 26.1758C215.302 25.9023 215.745 25.5312 216.031 25.0625C216.318 24.5938 216.461 24.0729 216.461 23.5ZM248.336 7.97266L240.992 31H234.195L244.723 2.5625H249.02L248.336 7.97266ZM254.43 31L247.066 7.97266L246.305 2.5625H250.66L261.227 31H254.43ZM254.117 20.4141V25.3359H239.293V20.4141H254.117ZM280.27 27.4453L285.934 2.5625H289.195L290.484 5.64844L284.449 31H280.875L280.27 27.4453ZM278.062 2.5625L282.809 27.5625L281.988 31H277.926L271.754 2.5625H278.062ZM294.527 27.4258L299.215 2.5625H305.504L299.332 31H295.309L294.527 27.4258ZM291.324 2.5625L297.066 27.582L296.402 31H292.848L286.715 5.62891L288.062 2.5625H291.324ZM319.391 7.97266L312.047 31H305.25L315.777 2.5625H320.074L319.391 7.97266ZM325.484 31L318.121 7.97266L317.359 2.5625H321.715L332.281 31H325.484ZM325.172 20.4141V25.3359H310.348V20.4141H325.172ZM336.461 2.5625L342.027 15.2188L347.633 2.5625H354.508L345.27 20.7266V31H338.805V20.7266L329.547 2.5625H336.461ZM373.199 2.5625V31H366.832V2.5625H373.199ZM384.391 14.5547V19.4766H371.422V14.5547H384.391ZM385.641 2.5625V7.50391H371.422V2.5625H385.641ZM412.457 16.1562V17.4258C412.457 19.5872 412.158 21.5273 411.559 23.2461C410.973 24.9648 410.133 26.4297 409.039 27.6406C407.958 28.8516 406.669 29.7826 405.172 30.4336C403.688 31.0716 402.04 31.3906 400.23 31.3906C398.421 31.3906 396.767 31.0716 395.27 30.4336C393.772 29.7826 392.47 28.8516 391.363 27.6406C390.27 26.4297 389.423 24.9648 388.824 23.2461C388.225 21.5273 387.926 19.5872 387.926 17.4258V16.1562C387.926 13.9948 388.225 12.0547 388.824 10.3359C389.423 8.60417 390.263 7.13281 391.344 5.92188C392.438 4.71094 393.733 3.78646 395.23 3.14844C396.728 2.4974 398.382 2.17188 400.191 2.17188C402.001 2.17188 403.655 2.4974 405.152 3.14844C406.65 3.78646 407.939 4.71094 409.02 5.92188C410.113 7.13281 410.96 8.60417 411.559 10.3359C412.158 12.0547 412.457 13.9948 412.457 16.1562ZM406.031 17.4258V16.1172C406.031 14.6719 405.901 13.3958 405.641 12.2891C405.38 11.1693 405.003 10.2318 404.508 9.47656C404.013 8.72135 403.401 8.15495 402.672 7.77734C401.943 7.38672 401.116 7.19141 400.191 7.19141C399.228 7.19141 398.388 7.38672 397.672 7.77734C396.956 8.15495 396.35 8.72135 395.855 9.47656C395.374 10.2318 395.003 11.1693 394.742 12.2891C394.495 13.3958 394.371 14.6719 394.371 16.1172V17.4258C394.371 18.8581 394.495 20.1341 394.742 21.2539C395.003 22.3607 395.38 23.2982 395.875 24.0664C396.37 24.8346 396.975 25.4141 397.691 25.8047C398.421 26.1953 399.267 26.3906 400.23 26.3906C401.155 26.3906 401.975 26.1953 402.691 25.8047C403.421 25.4141 404.033 24.8346 404.527 24.0664C405.022 23.2982 405.393 22.3607 405.641 21.2539C405.901 20.1341 406.031 18.8581 406.031 17.4258ZM416.363 2.5625H427.281C429.456 2.5625 431.337 2.88802 432.926 3.53906C434.527 4.1901 435.758 5.15365 436.617 6.42969C437.477 7.70573 437.906 9.28125 437.906 11.1562C437.906 12.7188 437.652 14.0469 437.145 15.1406C436.637 16.2344 435.921 17.1393 434.996 17.8555C434.085 18.5716 433.017 19.151 431.793 19.5938L429.723 20.7266H420.426L420.387 15.7852H427.301C428.251 15.7852 429.039 15.6159 429.664 15.2773C430.289 14.9388 430.758 14.4635 431.07 13.8516C431.396 13.2266 431.559 12.4974 431.559 11.6641C431.559 10.8047 431.396 10.0625 431.07 9.4375C430.745 8.8125 430.263 8.33724 429.625 8.01172C429 7.67318 428.219 7.50391 427.281 7.50391H422.73V31H416.363V2.5625ZM432.105 31L425.719 18.3633L432.438 18.3438L438.922 30.707V31H432.105ZM464 7.97266L456.656 31H449.859L460.387 2.5625H464.684L464 7.97266ZM470.094 31L462.73 7.97266L461.969 2.5625H466.324L476.891 31H470.094ZM469.781 20.4141V25.3359H454.957V20.4141H469.781ZM495.934 27.4453L501.598 2.5625H504.859L506.148 5.64844L500.113 31H496.539L495.934 27.4453ZM493.727 2.5625L498.473 27.5625L497.652 31H493.59L487.418 2.5625H493.727ZM510.191 27.4258L514.879 2.5625H521.168L514.996 31H510.973L510.191 27.4258ZM506.988 2.5625L512.73 27.582L512.066 31H508.512L502.379 5.62891L503.727 2.5625H506.988ZM547.809 16.1562V17.4258C547.809 19.5872 547.509 21.5273 546.91 23.2461C546.324 24.9648 545.484 26.4297 544.391 27.6406C543.31 28.8516 542.021 29.7826 540.523 30.4336C539.039 31.0716 537.392 31.3906 535.582 31.3906C533.772 31.3906 532.118 31.0716 530.621 30.4336C529.124 29.7826 527.822 28.8516 526.715 27.6406C525.621 26.4297 524.775 24.9648 524.176 23.2461C523.577 21.5273 523.277 19.5872 523.277 17.4258V16.1562C523.277 13.9948 523.577 12.0547 524.176 10.3359C524.775 8.60417 525.615 7.13281 526.695 5.92188C527.789 4.71094 529.085 3.78646 530.582 3.14844C532.079 2.4974 533.733 2.17188 535.543 2.17188C537.353 2.17188 539.007 2.4974 540.504 3.14844C542.001 3.78646 543.29 4.71094 544.371 5.92188C545.465 7.13281 546.311 8.60417 546.91 10.3359C547.509 12.0547 547.809 13.9948 547.809 16.1562ZM541.383 17.4258V16.1172C541.383 14.6719 541.253 13.3958 540.992 12.2891C540.732 11.1693 540.354 10.2318 539.859 9.47656C539.365 8.72135 538.753 8.15495 538.023 7.77734C537.294 7.38672 536.467 7.19141 535.543 7.19141C534.579 7.19141 533.74 7.38672 533.023 7.77734C532.307 8.15495 531.702 8.72135 531.207 9.47656C530.725 10.2318 530.354 11.1693 530.094 12.2891C529.846 13.3958 529.723 14.6719 529.723 16.1172V17.4258C529.723 18.8581 529.846 20.1341 530.094 21.2539C530.354 22.3607 530.732 23.2982 531.227 24.0664C531.721 24.8346 532.327 25.4141 533.043 25.8047C533.772 26.1953 534.618 26.3906 535.582 26.3906C536.507 26.3906 537.327 26.1953 538.043 25.8047C538.772 25.4141 539.384 24.8346 539.879 24.0664C540.374 23.2982 540.745 22.3607 540.992 21.2539C541.253 20.1341 541.383 18.8581 541.383 17.4258ZM554.762 2.5625H560.035L566.871 22.8945L573.688 2.5625H578.961L569 31H564.723L554.762 2.5625ZM551.715 2.5625H557.086L558.082 23.6367V31H551.715V2.5625ZM576.637 2.5625H582.027V31H575.641V23.6367L576.637 2.5625ZM598.922 7.97266L591.578 31H584.781L595.309 2.5625H599.605L598.922 7.97266ZM605.016 31L597.652 7.97266L596.891 2.5625H601.246L611.812 31H605.016ZM604.703 20.4141V25.3359H589.879V20.4141H604.703ZM637.633 2.5625V31H631.285L620.543 12.6211V31H614.176V2.5625H620.543L631.305 20.9414V2.5625H637.633ZM21.1875 49.5625V78H14.8398V49.5625H21.1875ZM29.8398 49.5625V54.5039H6.36328V49.5625H29.8398ZM56.1484 63.1562V64.4258C56.1484 66.5872 55.849 68.5273 55.25 70.2461C54.6641 71.9648 53.8242 73.4297 52.7305 74.6406C51.6497 75.8516 50.3607 76.7826 48.8633 77.4336C47.3789 78.0716 45.7318 78.3906 43.9219 78.3906C42.112 78.3906 40.4583 78.0716 38.9609 77.4336C37.4635 76.7826 36.1615 75.8516 35.0547 74.6406C33.9609 73.4297 33.1146 71.9648 32.5156 70.2461C31.9167 68.5273 31.6172 66.5872 31.6172 64.4258V63.1562C31.6172 60.9948 31.9167 59.0547 32.5156 57.3359C33.1146 55.6042 33.9544 54.1328 35.0352 52.9219C36.1289 51.7109 37.4245 50.7865 38.9219 50.1484C40.4193 49.4974 42.0729 49.1719 43.8828 49.1719C45.6927 49.1719 47.3464 49.4974 48.8438 50.1484C50.3411 50.7865 51.6302 51.7109 52.7109 52.9219C53.8047 54.1328 54.651 55.6042 55.25 57.3359C55.849 59.0547 56.1484 60.9948 56.1484 63.1562ZM49.7227 64.4258V63.1172C49.7227 61.6719 49.5924 60.3958 49.332 59.2891C49.0716 58.1693 48.694 57.2318 48.1992 56.4766C47.7044 55.7214 47.0924 55.1549 46.3633 54.7773C45.6341 54.3867 44.8073 54.1914 43.8828 54.1914C42.9193 54.1914 42.0794 54.3867 41.3633 54.7773C40.6471 55.1549 40.0417 55.7214 39.5469 56.4766C39.0651 57.2318 38.694 58.1693 38.4336 59.2891C38.1862 60.3958 38.0625 61.6719 38.0625 63.1172V64.4258C38.0625 65.8581 38.1862 67.1341 38.4336 68.2539C38.694 69.3607 39.0716 70.2982 39.5664 71.0664C40.0612 71.8346 40.6667 72.4141 41.3828 72.8047C42.112 73.1953 42.9583 73.3906 43.9219 73.3906C44.8464 73.3906 45.6667 73.1953 46.3828 72.8047C47.112 72.4141 47.724 71.8346 48.2188 71.0664C48.7135 70.2982 49.0846 69.3607 49.332 68.2539C49.5924 67.1341 49.7227 65.8581 49.7227 64.4258ZM88.5703 73.0781V78H74.2148V73.0781H88.5703ZM76.3828 49.5625V78H70.0156V49.5625H76.3828ZM114.117 63.1562V64.4258C114.117 66.5872 113.818 68.5273 113.219 70.2461C112.633 71.9648 111.793 73.4297 110.699 74.6406C109.618 75.8516 108.329 76.7826 106.832 77.4336C105.348 78.0716 103.701 78.3906 101.891 78.3906C100.081 78.3906 98.4271 78.0716 96.9297 77.4336C95.4323 76.7826 94.1302 75.8516 93.0234 74.6406C91.9297 73.4297 91.0833 71.9648 90.4844 70.2461C89.8854 68.5273 89.5859 66.5872 89.5859 64.4258V63.1562C89.5859 60.9948 89.8854 59.0547 90.4844 57.3359C91.0833 55.6042 91.9232 54.1328 93.0039 52.9219C94.0977 51.7109 95.3932 50.7865 96.8906 50.1484C98.388 49.4974 100.042 49.1719 101.852 49.1719C103.661 49.1719 105.315 49.4974 106.812 50.1484C108.31 50.7865 109.599 51.7109 110.68 52.9219C111.773 54.1328 112.62 55.6042 113.219 57.3359C113.818 59.0547 114.117 60.9948 114.117 63.1562ZM107.691 64.4258V63.1172C107.691 61.6719 107.561 60.3958 107.301 59.2891C107.04 58.1693 106.663 57.2318 106.168 56.4766C105.673 55.7214 105.061 55.1549 104.332 54.7773C103.603 54.3867 102.776 54.1914 101.852 54.1914C100.888 54.1914 100.048 54.3867 99.332 54.7773C98.6159 55.1549 98.0104 55.7214 97.5156 56.4766C97.0339 57.2318 96.6628 58.1693 96.4023 59.2891C96.1549 60.3958 96.0312 61.6719 96.0312 63.1172V64.4258C96.0312 65.8581 96.1549 67.1341 96.4023 68.2539C96.6628 69.3607 97.0404 70.2982 97.5352 71.0664C98.0299 71.8346 98.6354 72.4141 99.3516 72.8047C100.081 73.1953 100.927 73.3906 101.891 73.3906C102.815 73.3906 103.635 73.1953 104.352 72.8047C105.081 72.4141 105.693 71.8346 106.188 71.0664C106.682 70.2982 107.053 69.3607 107.301 68.2539C107.561 67.1341 107.691 65.8581 107.691 64.4258ZM141.734 63.1562V64.4258C141.734 66.5872 141.435 68.5273 140.836 70.2461C140.25 71.9648 139.41 73.4297 138.316 74.6406C137.236 75.8516 135.947 76.7826 134.449 77.4336C132.965 78.0716 131.318 78.3906 129.508 78.3906C127.698 78.3906 126.044 78.0716 124.547 77.4336C123.049 76.7826 121.747 75.8516 120.641 74.6406C119.547 73.4297 118.701 71.9648 118.102 70.2461C117.503 68.5273 117.203 66.5872 117.203 64.4258V63.1562C117.203 60.9948 117.503 59.0547 118.102 57.3359C118.701 55.6042 119.54 54.1328 120.621 52.9219C121.715 51.7109 123.01 50.7865 124.508 50.1484C126.005 49.4974 127.659 49.1719 129.469 49.1719C131.279 49.1719 132.932 49.4974 134.43 50.1484C135.927 50.7865 137.216 51.7109 138.297 52.9219C139.391 54.1328 140.237 55.6042 140.836 57.3359C141.435 59.0547 141.734 60.9948 141.734 63.1562ZM135.309 64.4258V63.1172C135.309 61.6719 135.178 60.3958 134.918 59.2891C134.658 58.1693 134.28 57.2318 133.785 56.4766C133.29 55.7214 132.678 55.1549 131.949 54.7773C131.22 54.3867 130.393 54.1914 129.469 54.1914C128.505 54.1914 127.665 54.3867 126.949 54.7773C126.233 55.1549 125.628 55.7214 125.133 56.4766C124.651 57.2318 124.28 58.1693 124.02 59.2891C123.772 60.3958 123.648 61.6719 123.648 63.1172V64.4258C123.648 65.8581 123.772 67.1341 124.02 68.2539C124.28 69.3607 124.658 70.2982 125.152 71.0664C125.647 71.8346 126.253 72.4141 126.969 72.8047C127.698 73.1953 128.544 73.3906 129.508 73.3906C130.432 73.3906 131.253 73.1953 131.969 72.8047C132.698 72.4141 133.31 71.8346 133.805 71.0664C134.299 70.2982 134.671 69.3607 134.918 68.2539C135.178 67.1341 135.309 65.8581 135.309 64.4258ZM152.008 49.5625V78H145.641V49.5625H152.008ZM169 49.5625L157.867 63.7812L151.383 70.8125L150.23 64.8945L154.508 58.7617L161.188 49.5625H169ZM161.617 78L153.766 65.0117L158.609 61.2422L169.156 78H161.617ZM192.926 54.9727L185.582 78H178.785L189.312 49.5625H193.609L192.926 54.9727ZM199.02 78L191.656 54.9727L190.895 49.5625H195.25L205.816 78H199.02ZM198.707 67.4141V72.3359H183.883V67.4141H198.707ZM231.637 49.5625V78H225.289L214.547 59.6211V78H208.18V49.5625H214.547L225.309 67.9414V49.5625H231.637ZM245.348 78H239.098L239.137 73.0781H245.348C246.767 73.0781 247.965 72.7526 248.941 72.1016C249.918 71.4375 250.66 70.4609 251.168 69.1719C251.676 67.8698 251.93 66.2878 251.93 64.4258V63.1172C251.93 61.7109 251.786 60.474 251.5 59.4062C251.214 58.3255 250.79 57.4206 250.23 56.6914C249.671 55.9622 248.974 55.4154 248.141 55.0508C247.32 54.6862 246.376 54.5039 245.309 54.5039H238.98V49.5625H245.309C247.236 49.5625 248.993 49.888 250.582 50.5391C252.184 51.1901 253.564 52.1211 254.723 53.332C255.895 54.543 256.799 55.9753 257.438 57.6289C258.076 59.2826 258.395 61.125 258.395 63.1562V64.4258C258.395 66.444 258.076 68.2865 257.438 69.9531C256.799 71.6068 255.895 73.0391 254.723 74.25C253.564 75.4479 252.19 76.3724 250.602 77.0234C249.013 77.6745 247.262 78 245.348 78ZM242.711 49.5625V78H236.344V49.5625H242.711ZM278.609 49.5625V78H272.242V49.5625H278.609ZM289.801 61.5547V66.4766H276.832V61.5547H289.801ZM291.051 49.5625V54.5039H276.832V49.5625H291.051ZM313.492 73.0781V78H298.355V73.0781H313.492ZM300.523 49.5625V78H294.156V49.5625H300.523ZM311.539 61.0078V65.7734H298.355V61.0078H311.539ZM313.512 49.5625V54.5039H298.355V49.5625H313.512ZM335.953 73.0781V78H320.816V73.0781H335.953ZM322.984 49.5625V78H316.617V49.5625H322.984ZM334 61.0078V65.7734H320.816V61.0078H334ZM335.973 49.5625V54.5039H320.816V49.5625H335.973ZM357.633 73.0781V78H343.277V73.0781H357.633ZM345.445 49.5625V78H339.078V49.5625H345.445ZM389.273 73.0781V78H374.918V73.0781H389.273ZM377.086 49.5625V78H370.719V49.5625H377.086ZM399.176 49.5625V78H392.828V49.5625H399.176ZM410.68 49.5625V78H404.312V49.5625H410.68ZM427.672 49.5625L416.539 63.7812L410.055 70.8125L408.902 64.8945L413.18 58.7617L419.859 49.5625H427.672ZM420.289 78L412.438 65.0117L417.281 61.2422L427.828 78H420.289ZM449.156 73.0781V78H434.02V73.0781H449.156ZM436.188 49.5625V78H429.82V49.5625H436.188ZM447.203 61.0078V65.7734H434.02V61.0078H447.203ZM449.176 49.5625V54.5039H434.02V49.5625H449.176ZM481.324 61.0078V65.9297H466.598V61.0078H481.324ZM468.609 49.5625V78H462.242V49.5625H468.609ZM485.719 49.5625V78H479.371V49.5625H485.719ZM509.781 73.0781V78H494.645V73.0781H509.781ZM496.812 49.5625V78H490.445V49.5625H496.812ZM507.828 61.0078V65.7734H494.645V61.0078H507.828ZM509.801 49.5625V54.5039H494.645V49.5625H509.801ZM512.906 49.5625H523.824C525.999 49.5625 527.88 49.888 529.469 50.5391C531.07 51.1901 532.301 52.1536 533.16 53.4297C534.02 54.7057 534.449 56.2812 534.449 58.1562C534.449 59.7188 534.195 61.0469 533.688 62.1406C533.18 63.2344 532.464 64.1393 531.539 64.8555C530.628 65.5716 529.56 66.151 528.336 66.5938L526.266 67.7266H516.969L516.93 62.7852H523.844C524.794 62.7852 525.582 62.6159 526.207 62.2773C526.832 61.9388 527.301 61.4635 527.613 60.8516C527.939 60.2266 528.102 59.4974 528.102 58.6641C528.102 57.8047 527.939 57.0625 527.613 56.4375C527.288 55.8125 526.806 55.3372 526.168 55.0117C525.543 54.6732 524.762 54.5039 523.824 54.5039H519.273V78H512.906V49.5625ZM528.648 78L522.262 65.3633L528.98 65.3438L535.465 77.707V78H528.648ZM553.512 70.5C553.512 70.0182 553.44 69.5885 553.297 69.2109C553.154 68.8203 552.893 68.4622 552.516 68.1367C552.138 67.8112 551.604 67.4857 550.914 67.1602C550.224 66.8216 549.319 66.4766 548.199 66.125C546.923 65.7083 545.706 65.2396 544.547 64.7188C543.401 64.1849 542.379 63.5664 541.48 62.8633C540.582 62.1602 539.872 61.3398 539.352 60.4023C538.844 59.4648 538.59 58.3711 538.59 57.1211C538.59 55.9102 538.857 54.8164 539.391 53.8398C539.924 52.8633 540.673 52.0299 541.637 51.3398C542.6 50.6367 543.733 50.1029 545.035 49.7383C546.337 49.3607 547.77 49.1719 549.332 49.1719C551.415 49.1719 553.245 49.543 554.82 50.2852C556.409 51.0143 557.646 52.043 558.531 53.3711C559.417 54.6862 559.859 56.2161 559.859 57.9609H553.531C553.531 57.1927 553.368 56.5156 553.043 55.9297C552.73 55.3307 552.249 54.862 551.598 54.5234C550.96 54.1849 550.159 54.0156 549.195 54.0156C548.258 54.0156 547.47 54.1589 546.832 54.4453C546.207 54.7188 545.732 55.0964 545.406 55.5781C545.094 56.0599 544.938 56.5872 544.938 57.1602C544.938 57.6159 545.055 58.0326 545.289 58.4102C545.536 58.7747 545.888 59.1198 546.344 59.4453C546.812 59.7578 547.385 60.0573 548.062 60.3438C548.74 60.6302 549.514 60.9036 550.387 61.1641C551.91 61.6458 553.258 62.1797 554.43 62.7656C555.615 63.3516 556.611 64.0156 557.418 64.7578C558.225 65.5 558.831 66.3398 559.234 67.2773C559.651 68.2148 559.859 69.276 559.859 70.4609C559.859 71.724 559.612 72.8438 559.117 73.8203C558.635 74.7969 557.932 75.6302 557.008 76.3203C556.096 76.9974 555.003 77.5117 553.727 77.8633C552.451 78.2148 551.025 78.3906 549.449 78.3906C548.017 78.3906 546.604 78.2083 545.211 77.8438C543.818 77.4661 542.555 76.8932 541.422 76.125C540.302 75.3568 539.404 74.3802 538.727 73.1953C538.062 71.9974 537.73 70.5781 537.73 68.9375H544.098C544.098 69.7969 544.221 70.526 544.469 71.125C544.716 71.7109 545.068 72.1862 545.523 72.5508C545.992 72.9154 546.559 73.1758 547.223 73.332C547.887 73.4883 548.629 73.5664 549.449 73.5664C550.4 73.5664 551.168 73.4362 551.754 73.1758C552.353 72.9023 552.796 72.5312 553.082 72.0625C553.368 71.5938 553.512 71.0729 553.512 70.5ZM582.945 73.0781V78H567.809V73.0781H582.945ZM569.977 49.5625V78H563.609V49.5625H569.977ZM580.992 61.0078V65.7734H567.809V61.0078H580.992ZM582.965 49.5625V54.5039H567.809V49.5625H582.965ZM604.625 73.0781V78H590.27V73.0781H604.625ZM592.438 49.5625V78H586.07V49.5625H592.438ZM614.117 49.5625V78H607.75V49.5625H614.117ZM625.309 61.5547V66.4766H612.34V61.5547H625.309ZM626.559 49.5625V54.5039H612.34V49.5625H626.559ZM629.957 73.1367L629.918 77.1211C629.918 78.6315 629.547 80.1354 628.805 81.6328C628.062 83.1432 627.132 84.3802 626.012 85.3438L622.887 83.8008C623.186 83.2018 623.492 82.5964 623.805 81.9844C624.13 81.3854 624.397 80.7214 624.605 79.9922C624.827 79.263 624.938 78.4102 624.938 77.4336V73.1367H629.957ZM92.8672 110.156V111.426C92.8672 113.587 92.5677 115.527 91.9688 117.246C91.3828 118.965 90.543 120.43 89.4492 121.641C88.3685 122.852 87.0794 123.783 85.582 124.434C84.0977 125.072 82.4505 125.391 80.6406 125.391C78.8307 125.391 77.1771 125.072 75.6797 124.434C74.1823 123.783 72.8802 122.852 71.7734 121.641C70.6797 120.43 69.8333 118.965 69.2344 117.246C68.6354 115.527 68.3359 113.587 68.3359 111.426V110.156C68.3359 107.995 68.6354 106.055 69.2344 104.336C69.8333 102.604 70.6732 101.133 71.7539 99.9219C72.8477 98.7109 74.1432 97.7865 75.6406 97.1484C77.138 96.4974 78.7917 96.1719 80.6016 96.1719C82.4115 96.1719 84.0651 96.4974 85.5625 97.1484C87.0599 97.7865 88.349 98.7109 89.4297 99.9219C90.5234 101.133 91.3698 102.604 91.9688 104.336C92.5677 106.055 92.8672 107.995 92.8672 110.156ZM86.4414 111.426V110.117C86.4414 108.672 86.3112 107.396 86.0508 106.289C85.7904 105.169 85.4128 104.232 84.918 103.477C84.4232 102.721 83.8112 102.155 83.082 101.777C82.3529 101.387 81.526 101.191 80.6016 101.191C79.638 101.191 78.7982 101.387 78.082 101.777C77.3659 102.155 76.7604 102.721 76.2656 103.477C75.7839 104.232 75.4128 105.169 75.1523 106.289C74.9049 107.396 74.7812 108.672 74.7812 110.117V111.426C74.7812 112.858 74.9049 114.134 75.1523 115.254C75.4128 116.361 75.7904 117.298 76.2852 118.066C76.7799 118.835 77.3854 119.414 78.1016 119.805C78.8307 120.195 79.6771 120.391 80.6406 120.391C81.5651 120.391 82.3854 120.195 83.1016 119.805C83.8307 119.414 84.4427 118.835 84.9375 118.066C85.4323 117.298 85.8034 116.361 86.0508 115.254C86.3112 114.134 86.4414 112.858 86.4414 111.426ZM120.23 96.5625V125H113.883L103.141 106.621V125H96.7734V96.5625H103.141L113.902 114.941V96.5625H120.23ZM143.492 120.078V125H129.137V120.078H143.492ZM131.305 96.5625V125H124.938V96.5625H131.305ZM145.816 96.5625L151.383 109.219L156.988 96.5625H163.863L154.625 114.727V125H148.16V114.727L138.902 96.5625H145.816ZM187.398 115.117H180.25V110.176H187.398C188.453 110.176 189.299 110 189.938 109.648C190.589 109.297 191.064 108.815 191.363 108.203C191.676 107.578 191.832 106.875 191.832 106.094C191.832 105.286 191.676 104.538 191.363 103.848C191.064 103.145 190.589 102.578 189.938 102.148C189.299 101.719 188.453 101.504 187.398 101.504H182.555V125H176.188V96.5625H187.398C189.664 96.5625 191.604 96.9727 193.219 97.793C194.846 98.6133 196.09 99.7396 196.949 101.172C197.822 102.591 198.258 104.219 198.258 106.055C198.258 107.891 197.822 109.486 196.949 110.84C196.09 112.194 194.846 113.249 193.219 114.004C191.604 114.746 189.664 115.117 187.398 115.117ZM202.125 96.5625H213.043C215.217 96.5625 217.099 96.888 218.688 97.5391C220.289 98.1901 221.52 99.1536 222.379 100.43C223.238 101.706 223.668 103.281 223.668 105.156C223.668 106.719 223.414 108.047 222.906 109.141C222.398 110.234 221.682 111.139 220.758 111.855C219.846 112.572 218.779 113.151 217.555 113.594L215.484 114.727H206.188L206.148 109.785H213.062C214.013 109.785 214.801 109.616 215.426 109.277C216.051 108.939 216.52 108.464 216.832 107.852C217.158 107.227 217.32 106.497 217.32 105.664C217.32 104.805 217.158 104.062 216.832 103.438C216.507 102.812 216.025 102.337 215.387 102.012C214.762 101.673 213.98 101.504 213.043 101.504H208.492V125H202.125V96.5625ZM217.867 125L211.48 112.363L218.199 112.344L224.684 124.707V125H217.867ZM247.32 120.078V125H232.184V120.078H247.32ZM234.352 96.5625V125H227.984V96.5625H234.352ZM245.367 108.008V112.773H232.184V108.008H245.367ZM247.34 96.5625V101.504H232.184V96.5625H247.34ZM264.078 96.5625V125H257.73V96.5625H264.078ZM272.73 96.5625V101.504H249.254V96.5625H272.73ZM289.43 96.5625V125H283.082V96.5625H289.43ZM298.082 96.5625V101.504H274.605V96.5625H298.082ZM308.004 96.5625V125H301.656V96.5625H308.004ZM332.477 120.078V125H317.34V120.078H332.477ZM319.508 96.5625V125H313.141V96.5625H319.508ZM330.523 108.008V112.773H317.34V108.008H330.523ZM332.496 96.5625V101.504H317.34V96.5625H332.496ZM335.602 96.5625H346.52C348.694 96.5625 350.576 96.888 352.164 97.5391C353.766 98.1901 354.996 99.1536 355.855 100.43C356.715 101.706 357.145 103.281 357.145 105.156C357.145 106.719 356.891 108.047 356.383 109.141C355.875 110.234 355.159 111.139 354.234 111.855C353.323 112.572 352.255 113.151 351.031 113.594L348.961 114.727H339.664L339.625 109.785H346.539C347.49 109.785 348.277 109.616 348.902 109.277C349.527 108.939 349.996 108.464 350.309 107.852C350.634 107.227 350.797 106.497 350.797 105.664C350.797 104.805 350.634 104.062 350.309 103.438C349.983 102.812 349.501 102.337 348.863 102.012C348.238 101.673 347.457 101.504 346.52 101.504H341.969V125H335.602V96.5625ZM351.344 125L344.957 112.363L351.676 112.344L358.16 124.707V125H351.344ZM383.238 101.973L375.895 125H369.098L379.625 96.5625H383.922L383.238 101.973ZM389.332 125L381.969 101.973L381.207 96.5625H385.562L396.129 125H389.332ZM389.02 114.414V119.336H374.195V114.414H389.02ZM421.949 96.5625V125H415.602L404.859 106.621V125H398.492V96.5625H404.859L415.621 114.941V96.5625H421.949ZM435.66 125H429.41L429.449 120.078H435.66C437.079 120.078 438.277 119.753 439.254 119.102C440.23 118.438 440.973 117.461 441.48 116.172C441.988 114.87 442.242 113.288 442.242 111.426V110.117C442.242 108.711 442.099 107.474 441.812 106.406C441.526 105.326 441.103 104.421 440.543 103.691C439.983 102.962 439.286 102.415 438.453 102.051C437.633 101.686 436.689 101.504 435.621 101.504H429.293V96.5625H435.621C437.548 96.5625 439.306 96.888 440.895 97.5391C442.496 98.1901 443.876 99.1211 445.035 100.332C446.207 101.543 447.112 102.975 447.75 104.629C448.388 106.283 448.707 108.125 448.707 110.156V111.426C448.707 113.444 448.388 115.286 447.75 116.953C447.112 118.607 446.207 120.039 445.035 121.25C443.876 122.448 442.503 123.372 440.914 124.023C439.326 124.674 437.574 125 435.66 125ZM433.023 96.5625V125H426.656V96.5625H433.023ZM465.602 96.5625H470.875L477.711 116.895L484.527 96.5625H489.801L479.84 125H475.562L465.602 96.5625ZM462.555 96.5625H467.926L468.922 117.637V125H462.555V96.5625ZM487.477 96.5625H492.867V125H486.48V117.637L487.477 96.5625ZM521.305 110.156V111.426C521.305 113.587 521.005 115.527 520.406 117.246C519.82 118.965 518.98 120.43 517.887 121.641C516.806 122.852 515.517 123.783 514.02 124.434C512.535 125.072 510.888 125.391 509.078 125.391C507.268 125.391 505.615 125.072 504.117 124.434C502.62 123.783 501.318 122.852 500.211 121.641C499.117 120.43 498.271 118.965 497.672 117.246C497.073 115.527 496.773 113.587 496.773 111.426V110.156C496.773 107.995 497.073 106.055 497.672 104.336C498.271 102.604 499.111 101.133 500.191 99.9219C501.285 98.7109 502.581 97.7865 504.078 97.1484C505.576 96.4974 507.229 96.1719 509.039 96.1719C510.849 96.1719 512.503 96.4974 514 97.1484C515.497 97.7865 516.786 98.7109 517.867 99.9219C518.961 101.133 519.807 102.604 520.406 104.336C521.005 106.055 521.305 107.995 521.305 110.156ZM514.879 111.426V110.117C514.879 108.672 514.749 107.396 514.488 106.289C514.228 105.169 513.85 104.232 513.355 103.477C512.861 102.721 512.249 102.155 511.52 101.777C510.79 101.387 509.964 101.191 509.039 101.191C508.076 101.191 507.236 101.387 506.52 101.777C505.803 102.155 505.198 102.721 504.703 103.477C504.221 104.232 503.85 105.169 503.59 106.289C503.342 107.396 503.219 108.672 503.219 110.117V111.426C503.219 112.858 503.342 114.134 503.59 115.254C503.85 116.361 504.228 117.298 504.723 118.066C505.217 118.835 505.823 119.414 506.539 119.805C507.268 120.195 508.115 120.391 509.078 120.391C510.003 120.391 510.823 120.195 511.539 119.805C512.268 119.414 512.88 118.835 513.375 118.066C513.87 117.298 514.241 116.361 514.488 115.254C514.749 114.134 514.879 112.858 514.879 111.426ZM525.211 96.5625H536.129C538.303 96.5625 540.185 96.888 541.773 97.5391C543.375 98.1901 544.605 99.1536 545.465 100.43C546.324 101.706 546.754 103.281 546.754 105.156C546.754 106.719 546.5 108.047 545.992 109.141C545.484 110.234 544.768 111.139 543.844 111.855C542.932 112.572 541.865 113.151 540.641 113.594L538.57 114.727H529.273L529.234 109.785H536.148C537.099 109.785 537.887 109.616 538.512 109.277C539.137 108.939 539.605 108.464 539.918 107.852C540.243 107.227 540.406 106.497 540.406 105.664C540.406 104.805 540.243 104.062 539.918 103.438C539.592 102.812 539.111 102.337 538.473 102.012C537.848 101.673 537.066 101.504 536.129 101.504H531.578V125H525.211V96.5625ZM540.953 125L534.566 112.363L541.285 112.344L547.77 124.707V125H540.953ZM570.406 120.078V125H555.27V120.078H570.406ZM557.438 96.5625V125H551.07V96.5625H557.438ZM568.453 108.008V112.773H555.27V108.008H568.453ZM570.426 96.5625V101.504H555.27V96.5625H570.426ZM215.914 162.469H222.242C222.138 164.422 221.604 166.147 220.641 167.645C219.69 169.129 218.368 170.294 216.676 171.141C214.983 171.974 212.971 172.391 210.641 172.391C208.779 172.391 207.112 172.072 205.641 171.434C204.169 170.796 202.919 169.884 201.891 168.699C200.875 167.501 200.094 166.062 199.547 164.383C199.013 162.69 198.746 160.783 198.746 158.66V156.922C198.746 154.799 199.026 152.892 199.586 151.199C200.146 149.507 200.947 148.061 201.988 146.863C203.03 145.665 204.28 144.747 205.738 144.109C207.197 143.471 208.824 143.152 210.621 143.152C213.043 143.152 215.087 143.589 216.754 144.461C218.421 145.333 219.71 146.531 220.621 148.055C221.546 149.578 222.099 151.316 222.281 153.27H215.934C215.882 152.163 215.673 151.232 215.309 150.477C214.944 149.708 214.384 149.129 213.629 148.738C212.874 148.348 211.871 148.152 210.621 148.152C209.71 148.152 208.909 148.322 208.219 148.66C207.542 148.999 206.975 149.526 206.52 150.242C206.077 150.958 205.745 151.87 205.523 152.977C205.302 154.07 205.191 155.372 205.191 156.883V158.66C205.191 160.158 205.289 161.453 205.484 162.547C205.68 163.641 205.992 164.546 206.422 165.262C206.865 165.978 207.431 166.512 208.121 166.863C208.811 167.215 209.651 167.391 210.641 167.391C211.773 167.391 212.717 167.215 213.473 166.863C214.228 166.499 214.807 165.952 215.211 165.223C215.615 164.493 215.849 163.576 215.914 162.469ZM249.488 157.156V158.426C249.488 160.587 249.189 162.527 248.59 164.246C248.004 165.965 247.164 167.43 246.07 168.641C244.99 169.852 243.701 170.783 242.203 171.434C240.719 172.072 239.072 172.391 237.262 172.391C235.452 172.391 233.798 172.072 232.301 171.434C230.803 170.783 229.501 169.852 228.395 168.641C227.301 167.43 226.454 165.965 225.855 164.246C225.257 162.527 224.957 160.587 224.957 158.426V157.156C224.957 154.995 225.257 153.055 225.855 151.336C226.454 149.604 227.294 148.133 228.375 146.922C229.469 145.711 230.764 144.786 232.262 144.148C233.759 143.497 235.413 143.172 237.223 143.172C239.033 143.172 240.686 143.497 242.184 144.148C243.681 144.786 244.97 145.711 246.051 146.922C247.145 148.133 247.991 149.604 248.59 151.336C249.189 153.055 249.488 154.995 249.488 157.156ZM243.062 158.426V157.117C243.062 155.672 242.932 154.396 242.672 153.289C242.411 152.169 242.034 151.232 241.539 150.477C241.044 149.721 240.432 149.155 239.703 148.777C238.974 148.387 238.147 148.191 237.223 148.191C236.259 148.191 235.419 148.387 234.703 148.777C233.987 149.155 233.382 149.721 232.887 150.477C232.405 151.232 232.034 152.169 231.773 153.289C231.526 154.396 231.402 155.672 231.402 157.117V158.426C231.402 159.858 231.526 161.134 231.773 162.254C232.034 163.361 232.411 164.298 232.906 165.066C233.401 165.835 234.007 166.414 234.723 166.805C235.452 167.195 236.298 167.391 237.262 167.391C238.186 167.391 239.007 167.195 239.723 166.805C240.452 166.414 241.064 165.835 241.559 165.066C242.053 164.298 242.424 163.361 242.672 162.254C242.932 161.134 243.062 159.858 243.062 158.426ZM276.852 143.562V172H270.504L259.762 153.621V172H253.395V143.562H259.762L270.523 161.941V143.562H276.852ZM287.926 143.562V172H281.559V143.562H287.926ZM299.117 155.555V160.477H286.148V155.555H299.117ZM300.367 143.562V148.504H286.148V143.562H300.367ZM310.25 143.562V172H303.902V143.562H310.25ZM324.391 172H318.141L318.18 167.078H324.391C325.81 167.078 327.008 166.753 327.984 166.102C328.961 165.438 329.703 164.461 330.211 163.172C330.719 161.87 330.973 160.288 330.973 158.426V157.117C330.973 155.711 330.829 154.474 330.543 153.406C330.257 152.326 329.833 151.421 329.273 150.691C328.714 149.962 328.017 149.415 327.184 149.051C326.363 148.686 325.419 148.504 324.352 148.504H318.023V143.562H324.352C326.279 143.562 328.036 143.888 329.625 144.539C331.227 145.19 332.607 146.121 333.766 147.332C334.938 148.543 335.842 149.975 336.48 151.629C337.118 153.283 337.438 155.125 337.438 157.156V158.426C337.438 160.444 337.118 162.286 336.48 163.953C335.842 165.607 334.938 167.039 333.766 168.25C332.607 169.448 331.233 170.372 329.645 171.023C328.056 171.674 326.305 172 324.391 172ZM321.754 143.562V172H315.387V143.562H321.754ZM360.66 167.078V172H345.523V167.078H360.66ZM347.691 143.562V172H341.324V143.562H347.691ZM358.707 155.008V159.773H345.523V155.008H358.707ZM360.68 143.562V148.504H345.523V143.562H360.68ZM387.242 143.562V172H380.895L370.152 153.621V172H363.785V143.562H370.152L380.914 161.941V143.562H387.242ZM404.605 143.562V172H398.258V143.562H404.605ZM413.258 143.562V148.504H389.781V143.562H413.258ZM421.871 142V145.086C421.871 145.945 421.702 146.831 421.363 147.742C421.038 148.641 420.608 149.493 420.074 150.301C419.54 151.095 418.954 151.772 418.316 152.332L415.562 150.789C416.018 150.021 416.415 149.188 416.754 148.289C417.092 147.378 417.262 146.31 417.262 145.086V142H421.871ZM428.766 142V145.086C428.766 145.945 428.596 146.831 428.258 147.742C427.932 148.641 427.503 149.493 426.969 150.301C426.435 151.095 425.849 151.772 425.211 152.332L422.457 150.789C422.913 150.021 423.31 149.188 423.648 148.289C423.987 147.378 424.156 146.31 424.156 145.086V142H428.766ZM262.11 223.36C260.963 223.36 259.803 223.16 258.63 222.76C257.483 222.413 256.91 221.933 256.91 221.32C256.91 221.267 256.936 221.24 256.99 221.24L257.23 221.32C257.843 221.72 258.616 221.92 259.55 221.92C261.816 221.92 263.816 221.373 265.55 220.28C267.256 219.213 268.11 218.173 268.11 217.16C268.11 216.12 267.43 215.267 266.07 214.6C265.323 214.227 264.576 213.96 263.83 213.8C263.11 213.64 262.43 213.56 261.79 213.56C260.723 213.56 259.856 213.707 259.19 214C258.923 213.973 258.79 213.8 258.79 213.48C258.79 213.107 259.07 212.84 259.63 212.68L260.91 212.48C263.87 211.68 266.176 210.653 267.83 209.4C269.483 208.12 270.31 206.693 270.31 205.12C270.31 204.347 269.87 203.72 268.99 203.24C268.11 202.76 266.776 202.52 264.99 202.52C263.23 202.52 261.75 202.68 260.55 203C259.963 203.133 259.19 203.36 258.23 203.68C257.296 203.973 256.123 204.36 254.71 204.84C252.016 205.747 250.616 206.2 250.51 206.2C250.056 206.2 249.83 205.88 249.83 205.24C249.83 204.947 249.923 204.76 250.11 204.68C255.123 202.68 259.95 201.68 264.59 201.68C269.95 201.68 272.63 202.987 272.63 205.6C272.63 206.987 271.683 208.387 269.79 209.8C268.856 210.493 267.803 211.093 266.63 211.6C265.483 212.107 264.216 212.533 262.83 212.88C264.883 213.04 266.523 213.56 267.75 214.44C268.976 215.293 269.59 216.467 269.59 217.96C269.59 219.4 268.843 220.667 267.35 221.76C265.883 222.827 264.136 223.36 262.11 223.36ZM253.51 225.88C253.056 225.88 252.656 225.52 252.31 224.8C251.99 224.08 251.83 223.24 251.83 222.28C251.83 218.787 253.763 213.787 257.63 207.28C258.75 205.173 259.496 204.12 259.87 204.12C260.243 204.12 260.643 204.213 261.07 204.4C261.496 204.56 261.71 204.72 261.71 204.88C261.71 204.907 261.696 204.947 261.67 205C255.91 213.347 253.03 219.52 253.03 223.52C253.03 224.027 253.136 224.52 253.35 225C253.563 225.48 253.696 225.72 253.75 225.72C253.696 225.827 253.616 225.88 253.51 225.88ZM273.961 222C271.801 222 270.721 220.867 270.721 218.6C270.721 217.693 270.921 216.733 271.321 215.72C271.747 214.68 272.267 213.84 272.881 213.2C272.587 212.693 272.441 212.067 272.441 211.32C272.441 210.547 272.761 209.853 273.401 209.24C274.041 208.6 274.827 208.28 275.761 208.28C277.494 208.28 278.667 209.187 279.281 211C280.534 211.24 281.161 211.533 281.161 211.88C281.161 212.28 281.027 212.48 280.761 212.48L279.761 212.32C279.787 212.587 279.801 212.827 279.801 213.04C279.827 213.253 279.841 213.44 279.841 213.6C279.841 215.787 279.281 217.747 278.161 219.48C277.041 221.16 275.641 222 273.961 222ZM273.441 212.84C275.254 211.48 276.507 210.8 277.201 210.8H277.321C276.947 209.867 276.254 209.4 275.241 209.4C274.787 209.4 274.414 209.56 274.121 209.88C273.827 210.173 273.614 210.533 273.481 210.96C273.347 211.387 273.281 211.773 273.281 212.12C273.281 212.44 273.334 212.68 273.441 212.84ZM273.921 221.52C275.014 221.52 276.041 220.667 277.001 218.96C277.961 217.227 278.441 215.573 278.441 214C278.441 213.307 278.321 212.747 278.081 212.32C277.094 212.48 276.014 213.107 274.841 214.2C275.107 214.387 275.321 214.48 275.481 214.48C275.641 214.453 275.734 214.44 275.761 214.44C275.894 214.44 275.961 214.507 275.961 214.64C275.961 214.853 275.787 214.96 275.441 214.96C275.147 214.96 274.814 214.867 274.441 214.68C273.027 216.333 272.321 217.893 272.321 219.36C272.321 220.8 272.854 221.52 273.921 221.52ZM282.863 223.36C281.556 223.36 280.49 222.707 279.663 221.4C279.583 221.267 279.583 221.16 279.663 221.08C280.516 221.693 281.33 222 282.103 222C283.89 222 285.556 220.92 287.103 218.76C288.703 216.547 289.503 214.387 289.503 212.28C289.503 211.453 289.223 211.04 288.663 211.04C287.49 211.04 286.13 212.213 284.583 214.56C283.01 216.907 282.223 218.747 282.223 220.08C282.223 220.32 282.316 220.64 282.503 221.04C282.503 221.173 282.396 221.213 282.183 221.16C281.996 221.107 281.81 220.947 281.623 220.68C281.436 220.387 281.343 220 281.343 219.52C281.343 218.827 281.49 217.893 281.783 216.72C282.103 215.547 282.596 214.187 283.263 212.64L286.183 205.92C286.796 204.267 287.103 203.107 287.103 202.44C287.103 201.88 286.863 201.6 286.383 201.6L284.983 201.88C284.796 201.88 284.703 201.8 284.703 201.64C284.703 201.24 285.196 201.04 286.183 201.04C287.196 201.04 287.97 201.213 288.503 201.56C289.063 201.907 289.343 202.4 289.343 203.04C289.343 203.653 288.823 204.987 287.783 207.04L285.703 211.12C286.53 210.533 287.503 210.24 288.623 210.24C290.463 210.24 291.383 211.133 291.383 212.92C291.383 214.973 290.396 217.227 288.423 219.68C286.45 222.133 284.596 223.36 282.863 223.36ZM294.699 223.36C293.392 223.36 292.326 222.707 291.499 221.4C291.419 221.267 291.419 221.16 291.499 221.08C292.352 221.693 293.166 222 293.939 222C295.726 222 297.392 220.92 298.939 218.76C300.539 216.547 301.339 214.387 301.339 212.28C301.339 211.453 301.059 211.04 300.499 211.04C299.326 211.04 297.966 212.213 296.419 214.56C294.846 216.907 294.059 218.747 294.059 220.08C294.059 220.32 294.152 220.64 294.339 221.04C294.339 221.173 294.232 221.213 294.019 221.16C293.832 221.107 293.646 220.947 293.459 220.68C293.272 220.387 293.179 220 293.179 219.52C293.179 218.827 293.326 217.893 293.619 216.72C293.939 215.547 294.432 214.187 295.099 212.64L298.019 205.92C298.632 204.267 298.939 203.107 298.939 202.44C298.939 201.88 298.699 201.6 298.219 201.6L296.819 201.88C296.632 201.88 296.539 201.8 296.539 201.64C296.539 201.24 297.032 201.04 298.019 201.04C299.032 201.04 299.806 201.213 300.339 201.56C300.899 201.907 301.179 202.4 301.179 203.04C301.179 203.653 300.659 204.987 299.619 207.04L297.539 211.12C298.366 210.533 299.339 210.24 300.459 210.24C302.299 210.24 303.219 211.133 303.219 212.92C303.219 214.973 302.232 217.227 300.259 219.68C298.286 222.133 296.432 223.36 294.699 223.36ZM308.866 208.04C308.28 208.04 307.8 207.88 307.426 207.56C307.933 207.213 308.466 206.76 309.026 206.2C309.613 205.64 310.213 204.973 310.826 204.2C310.88 204.2 310.906 204.267 310.906 204.4L310.706 205.56C310.573 206.387 310.333 207.013 309.986 207.44C309.64 207.84 309.266 208.04 308.866 208.04ZM305.026 222.6C304.013 222.6 303.506 221.867 303.506 220.4C303.506 218.187 304.306 215.267 305.906 211.64C305.906 211.533 305.973 211.333 306.106 211.04C306.266 210.747 306.386 210.56 306.466 210.48C306.653 210.293 306.906 210.2 307.226 210.2C308.16 210.2 308.666 210.387 308.746 210.76C308.32 211.453 307.906 212.253 307.506 213.16C307.133 214.067 306.76 215.067 306.386 216.16C305.986 217.333 305.693 218.307 305.506 219.08C305.346 219.827 305.266 220.427 305.266 220.88C305.266 221.547 305.44 221.88 305.786 221.88C306.026 221.88 306.333 221.733 306.706 221.44C307 221.2 307.2 221.027 307.306 220.92C307.44 220.813 307.56 220.72 307.666 220.64C307.773 220.64 307.826 220.693 307.826 220.8C307.826 221.093 307.44 221.467 306.666 221.92C305.893 222.373 305.346 222.6 305.026 222.6ZM329.141 223.36C327.994 223.36 326.834 223.16 325.661 222.76C324.514 222.413 323.941 221.933 323.941 221.32C323.941 221.267 323.968 221.24 324.021 221.24L324.261 221.32C324.874 221.72 325.648 221.92 326.581 221.92C328.848 221.92 330.848 221.373 332.581 220.28C334.288 219.213 335.141 218.173 335.141 217.16C335.141 216.12 334.461 215.267 333.101 214.6C332.354 214.227 331.608 213.96 330.861 213.8C330.141 213.64 329.461 213.56 328.821 213.56C327.754 213.56 326.888 213.707 326.221 214C325.954 213.973 325.821 213.8 325.821 213.48C325.821 213.107 326.101 212.84 326.661 212.68L327.941 212.48C330.901 211.68 333.208 210.653 334.861 209.4C336.514 208.12 337.341 206.693 337.341 205.12C337.341 204.347 336.901 203.72 336.021 203.24C335.141 202.76 333.808 202.52 332.021 202.52C330.261 202.52 328.781 202.68 327.581 203C326.994 203.133 326.221 203.36 325.261 203.68C324.328 203.973 323.154 204.36 321.741 204.84C319.048 205.747 317.648 206.2 317.541 206.2C317.088 206.2 316.861 205.88 316.861 205.24C316.861 204.947 316.954 204.76 317.141 204.68C322.154 202.68 326.981 201.68 331.621 201.68C336.981 201.68 339.661 202.987 339.661 205.6C339.661 206.987 338.714 208.387 336.821 209.8C335.888 210.493 334.834 211.093 333.661 211.6C332.514 212.107 331.248 212.533 329.861 212.88C331.914 213.04 333.554 213.56 334.781 214.44C336.008 215.293 336.621 216.467 336.621 217.96C336.621 219.4 335.874 220.667 334.381 221.76C332.914 222.827 331.168 223.36 329.141 223.36ZM320.541 225.88C320.088 225.88 319.688 225.52 319.341 224.8C319.021 224.08 318.861 223.24 318.861 222.28C318.861 218.787 320.794 213.787 324.661 207.28C325.781 205.173 326.528 204.12 326.901 204.12C327.274 204.12 327.674 204.213 328.101 204.4C328.528 204.56 328.741 204.72 328.741 204.88C328.741 204.907 328.728 204.947 328.701 205C322.941 213.347 320.061 219.52 320.061 223.52C320.061 224.027 320.168 224.52 320.381 225C320.594 225.48 320.728 225.72 320.781 225.72C320.728 225.827 320.648 225.88 320.541 225.88ZM339.672 222.08C339.432 222.08 339.165 222.013 338.872 221.88C338.579 221.747 338.432 221.587 338.432 221.4C338.432 220.947 338.872 219.347 339.752 216.6C340.632 213.827 341.072 211.747 341.072 210.36C341.072 209.933 340.885 209.693 340.512 209.64C340.139 209.587 339.952 209.507 339.952 209.4C339.952 209.16 340.152 209.04 340.552 209.04C342.339 209.04 343.232 209.773 343.232 211.24C343.232 211.667 342.792 213.24 341.912 215.96C343.352 213.613 344.952 212 346.712 211.12C347.165 210.16 347.792 209.68 348.592 209.68C349.365 209.68 349.792 209.747 349.872 209.88C349.845 209.853 349.792 209.893 349.712 210C349.632 210.107 349.539 210.227 349.432 210.36C349.005 210.973 348.632 211.573 348.312 212.16C347.992 212.72 347.819 213.16 347.792 213.48C347.792 214.2 348.045 214.64 348.552 214.8C348.605 214.827 348.659 214.84 348.712 214.84C348.792 214.84 348.832 214.867 348.832 214.92C348.832 215.133 348.565 215.24 348.032 215.24C347.525 215.24 347.085 215.04 346.712 214.64C346.499 214.4 346.352 214.147 346.272 213.88C346.192 213.587 346.152 213.307 346.152 213.04C346.152 212.613 346.219 212.227 346.352 211.88C345.685 212.387 345.085 212.92 344.552 213.48C344.019 214.013 343.525 214.547 343.072 215.08C342.219 216.173 341.619 217.147 341.272 218C340.952 218.827 340.725 219.533 340.592 220.12C340.432 220.76 340.299 221.253 340.192 221.6C340.085 221.92 339.912 222.08 339.672 222.08ZM352.242 222C350.082 222 349.002 220.867 349.002 218.6C349.002 217.693 349.202 216.733 349.602 215.72C350.029 214.68 350.549 213.84 351.162 213.2C350.869 212.693 350.722 212.067 350.722 211.32C350.722 210.547 351.042 209.853 351.682 209.24C352.322 208.6 353.109 208.28 354.042 208.28C355.775 208.28 356.949 209.187 357.562 211C358.815 211.24 359.442 211.533 359.442 211.88C359.442 212.28 359.309 212.48 359.042 212.48L358.042 212.32C358.069 212.587 358.082 212.827 358.082 213.04C358.109 213.253 358.122 213.44 358.122 213.6C358.122 215.787 357.562 217.747 356.442 219.48C355.322 221.16 353.922 222 352.242 222ZM351.722 212.84C353.535 211.48 354.789 210.8 355.482 210.8H355.602C355.229 209.867 354.535 209.4 353.522 209.4C353.069 209.4 352.695 209.56 352.402 209.88C352.109 210.173 351.895 210.533 351.762 210.96C351.629 211.387 351.562 211.773 351.562 212.12C351.562 212.44 351.615 212.68 351.722 212.84ZM352.202 221.52C353.295 221.52 354.322 220.667 355.282 218.96C356.242 217.227 356.722 215.573 356.722 214C356.722 213.307 356.602 212.747 356.362 212.32C355.375 212.48 354.295 213.107 353.122 214.2C353.389 214.387 353.602 214.48 353.762 214.48C353.922 214.453 354.015 214.44 354.042 214.44C354.175 214.44 354.242 214.507 354.242 214.64C354.242 214.853 354.069 214.96 353.722 214.96C353.429 214.96 353.095 214.867 352.722 214.68C351.309 216.333 350.602 217.893 350.602 219.36C350.602 220.8 351.135 221.52 352.202 221.52ZM359.738 222.28C359.284 222.28 358.911 222.093 358.618 221.72C358.351 221.347 358.218 220.907 358.218 220.4C358.218 218.72 359.884 215.853 363.218 211.8C363.431 211.533 363.604 211.36 363.738 211.28C363.898 211.173 364.031 211.12 364.138 211.12C364.298 211.12 364.378 211.2 364.378 211.36L364.298 211.48C364.031 211.88 363.671 212.48 363.218 213.28C362.764 214.08 362.271 215.04 361.738 216.16C361.258 217.2 360.871 218.093 360.578 218.84C360.311 219.587 360.178 220.093 360.178 220.36C360.178 220.867 360.298 221.12 360.538 221.12C360.938 221.12 362.098 219.893 364.018 217.44C365.111 216.107 365.924 215.04 366.458 214.24C366.991 213.44 367.351 212.84 367.538 212.44C367.618 212.36 368.018 212.32 368.738 212.32C369.431 212.32 369.804 212.427 369.858 212.64C369.778 212.64 369.738 213.84 369.738 216.24C369.738 219.627 370.151 221.32 370.978 221.32C371.671 221.32 372.404 220.493 373.178 218.84C373.924 217.187 374.298 215.613 374.298 214.12C374.298 212.2 373.724 211.067 372.578 210.72C372.684 210.453 373.151 210.32 373.978 210.32C375.631 210.32 376.458 211.533 376.458 213.96C376.458 215.907 375.898 217.707 374.778 219.36C373.658 221.013 372.351 221.84 370.858 221.84C369.818 221.84 369.018 221.227 368.458 220C367.898 218.747 367.618 217.107 367.618 215.08C367.618 214.333 367.671 213.76 367.778 213.36C366.631 215.2 365.631 216.72 364.778 217.92C363.951 219.12 363.284 220.013 362.778 220.6C361.791 221.72 360.778 222.28 359.738 222.28ZM378.303 222.08C378.036 222.08 377.783 222.013 377.543 221.88C377.303 221.72 377.169 221.56 377.143 221.4C377.143 220.947 377.583 219.347 378.463 216.6C379.343 213.827 379.783 211.747 379.783 210.36C379.783 209.96 379.689 209.733 379.503 209.68C379.316 209.6 379.129 209.573 378.943 209.6C378.756 209.6 378.663 209.533 378.663 209.4C378.663 209.16 378.863 209.04 379.263 209.04C381.049 209.04 381.943 209.773 381.943 211.24C381.943 211.773 381.303 213.947 380.023 217.76C380.609 216.827 381.183 215.973 381.743 215.2C382.329 214.4 382.889 213.667 383.423 213C384.516 211.667 385.249 211 385.623 211C385.623 211 385.623 211.013 385.623 211.04C385.649 211.04 385.663 211.053 385.663 211.08C385.663 211.107 385.636 211.173 385.583 211.28C385.556 211.36 385.476 211.48 385.343 211.64C382.463 215.107 380.463 218.093 379.343 220.6L378.983 221.64C378.876 221.933 378.649 222.08 378.303 222.08ZM386.583 222.52C385.809 222.52 385.196 222.16 384.743 221.44C384.316 220.773 384.103 219.773 384.103 218.44C384.103 217.16 384.449 215.44 385.143 213.28C385.836 211.12 386.503 210.04 387.143 210.04H387.343C388.223 210.04 388.689 210.213 388.743 210.56C388.689 210.507 388.623 210.587 388.543 210.8C388.169 211.467 387.809 212.213 387.463 213.04C387.143 213.867 386.836 214.76 386.543 215.72C385.956 217.587 385.663 218.84 385.663 219.48C385.663 221.107 385.956 221.92 386.543 221.92C386.703 221.92 386.929 221.8 387.223 221.56C387.543 221.32 387.689 221.187 387.663 221.16C387.743 221.16 387.783 221.267 387.783 221.48C387.783 222.173 387.383 222.52 386.583 222.52Z" fill="#AC9897"/>
</svg>
